<svg fill="none" height="24" viewBox="0 0 24 24" width="24" xmlns="http://www.w3.org/2000/svg"><g stroke="#292d32" stroke-linecap="round" stroke-linejoin="round" stroke-miterlimit="10" stroke-width="1.5"><path d="m5 10h2c2 0 3-1 3-3v-2c0-2-1-3-3-3h-2c-2 0-3 1-3 3v2c0 2 1 3 3 3z"/><path d="m17 10h2c2 0 3-1 3-3v-2c0-2-1-3-3-3h-2c-2 0-3 1-3 3v2c0 2 1 3 3 3z"/><path d="m17 22h2c2 0 3-1 3-3v-2c0-2-1-3-3-3h-2c-2 0-3 1-3 3v2c0 2 1 3 3 3z"/><path d="m5 22h2c2 0 3-1 3-3v-2c0-2-1-3-3-3h-2c-2 0-3 1-3 3v2c0 2 1 3 3 3z"/></g></svg>